<?xml version="1.0" encoding="UTF-8" standalone="no"?>
<svg xmlns="http://www.w3.org/2000/svg" width="200" height="200" viewBox="0 0 200 200">
  <!-- Dark background with grid pattern -->
  <rect width="200" height="200" fill="#1a0f2e" />
  
  <!-- Grid lines -->
  <line x1="0" y1="50" x2="200" y2="50" stroke="#3a2c4e" stroke-width="1" />
  <line x1="0" y1="100" x2="200" y2="100" stroke="#3a2c4e" stroke-width="1" />
  <line x1="0" y1="150" x2="200" y2="150" stroke="#3a2c4e" stroke-width="1" />
  <line x1="50" y1="0" x2="50" y2="200" stroke="#3a2c4e" stroke-width="1" />
  <line x1="100" y1="0" x2="100" y2="200" stroke="#3a2c4e" stroke-width="1" />
  <line x1="150" y1="0" x2="150" y2="200" stroke="#3a2c4e" stroke-width="1" />
  
  <!-- Beaker outline -->
  <path d="M80,50 L120,50 L130,150 L70,150 Z" fill="none" stroke="#6a4c93" stroke-width="2" />
  
  <!-- Beaker base -->
  <rect x="70" y="150" width="60" height="10" fill="none" stroke="#6a4c93" stroke-width="2" />
  
  <!-- Liquid in beaker -->
  <path d="M82,130 L118,130 L122,150 L78,150 Z" fill="#5d17eb" opacity="0.7" />
  
  <!-- Bubbles in the liquid -->
  <circle cx="90" cy="120" r="3" fill="#ffffff" opacity="0.6" />
  <circle cx="100" cy="125" r="4" fill="#ffffff" opacity="0.5" />
  <circle cx="110" cy="118" r="2" fill="#ffffff" opacity="0.7" />
  <circle cx="95" cy="135" r="2" fill="#ffffff" opacity="0.5" />
  <circle cx="105" cy="140" r="3" fill="#ffffff" opacity="0.6" />
  
  <!-- Glow effect -->
  <circle cx="100" cy="100" r="65" fill="#5d17eb" opacity="0.2" />
</svg>