<?xml version="1.0" encoding="UTF-8" standalone="no"?>
<svg xmlns="http://www.w3.org/2000/svg" width="200" height="160" viewBox="0 0 200 160">
  <!-- Body -->
  <ellipse cx="110" cy="95" rx="70" ry="40" fill="#8B4513" stroke="#000" stroke-width="2"/>
  
  <!-- Head -->
  <ellipse cx="40" cy="70" rx="25" ry="20" fill="#8B4513" stroke="#000" stroke-width="2"/>
  
  <!-- Snout -->
  <ellipse cx="20" cy="75" rx="15" ry="10" fill="#A0522D" stroke="#000" stroke-width="1.5"/>
  
  <!-- Eyes -->
  <circle cx="36" cy="62" r="4" fill="#000"/>
  <circle cx="46" cy="62" r="4" fill="#000"/>
  <circle cx="36" cy="62" r="1" fill="#FFF"/>
  <circle cx="46" cy="62" r="1" fill="#FFF"/>
  
  <!-- Ears -->
  <ellipse cx="50" cy="55" rx="8" ry="10" fill="#8B4513" stroke="#000" stroke-width="1.5"/>
  <ellipse cx="32" cy="55" rx="8" ry="10" fill="#8B4513" stroke="#000" stroke-width="1.5"/>
  
  <!-- Horns -->
  <path d="M45,52 C48,40 55,35 60,32" fill="none" stroke="#E8D8A7" stroke-width="4" stroke-linecap="round"/>
  <path d="M37,52 C34,40 27,35 22,32" fill="none" stroke="#E8D8A7" stroke-width="4" stroke-linecap="round"/>
  
  <!-- Legs -->
  <rect x="60" y="115" width="10" height="30" fill="#8B4513" stroke="#000" stroke-width="1.5"/>
  <rect x="150" y="115" width="10" height="30" fill="#8B4513" stroke="#000" stroke-width="1.5"/>
  <rect x="80" y="115" width="10" height="30" fill="#8B4513" stroke="#000" stroke-width="1.5"/>
  <rect x="130" y="115" width="10" height="30" fill="#8B4513" stroke="#000" stroke-width="1.5"/>
  
  <!-- Spots -->
  <ellipse cx="85" cy="75" rx="15" ry="12" fill="#FFF" stroke="#000" stroke-width="0.5" opacity="0.9"/>
  <ellipse cx="120" cy="105" rx="20" ry="12" fill="#FFF" stroke="#000" stroke-width="0.5" opacity="0.9"/>
  <ellipse cx="140" cy="80" rx="12" ry="9" fill="#FFF" stroke="#000" stroke-width="0.5" opacity="0.9"/>
  
  <!-- Tail -->
  <path d="M175,85 C180,75 190,70 195,60" fill="none" stroke="#8B4513" stroke-width="5" stroke-linecap="round"/>
  <ellipse cx="195" cy="58" rx="4" ry="6" fill="#5D4037" stroke="#000" stroke-width="1"/>
</svg>