<?xml version="1.0" encoding="UTF-8" standalone="no"?>
<svg width="80" height="60" xmlns="http://www.w3.org/2000/svg">
  <!-- Cow body -->
  <ellipse cx="40" cy="35" rx="25" ry="15" fill="#964B00" />
  
  <!-- Head -->
  <circle cx="15" cy="30" r="10" fill="#964B00" />
  
  <!-- Ears -->
  <path d="M10 22 L5 18 L9 25" fill="#964B00" />
  <path d="M20 22 L25 18 L21 25" fill="#964B00" />
  
  <!-- Eyes -->
  <circle cx="12" cy="28" r="2" fill="#000000" />
  <circle cx="18" cy="28" r="2" fill="#000000" />
  
  <!-- Nose -->
  <ellipse cx="13" cy="33" rx="3" ry="2" fill="#000000" />
  
  <!-- Legs -->
  <rect x="25" y="45" width="4" height="15" fill="#964B00" />
  <rect x="35" y="45" width="4" height="15" fill="#964B00" />
  <rect x="45" y="45" width="4" height="15" fill="#964B00" />
  <rect x="55" y="45" width="4" height="15" fill="#964B00" />
  
  <!-- Tail -->
  <path d="M65 30 Q75 20 70 15" stroke="#964B00" stroke-width="2" fill="none" />
  
  <!-- Spots (for Holstein cow) -->
  <ellipse cx="30" cy="30" rx="6" ry="5" fill="#FFFFFF" />
  <ellipse cx="50" cy="35" rx="8" ry="6" fill="#FFFFFF" />
  <ellipse cx="40" cy="40" rx="5" ry="4" fill="#FFFFFF" />
  
  <!-- Horns -->
  <path d="M10 23 L5 15 L10 20" fill="#F5DEB3" />
  <path d="M20 23 L25 15 L20 20" fill="#F5DEB3" />
</svg>