<?xml version="1.0" encoding="UTF-8" standalone="no"?>
<svg width="64" height="64" xmlns="http://www.w3.org/2000/svg">
  <!-- Cyberpunk cowboy character -->
  
  <!-- Head -->
  <circle cx="32" cy="20" r="10" fill="#f5deb3" />
  
  <!-- Hat -->
  <path d="M20 20 L44 20 L42 15 L22 15 Z" fill="#8b4513" />
  <rect x="24" y="10" width="16" height="5" fill="#8b4513" />
  
  <!-- Hair -->
  <path d="M25 18 L25 25 L28 25" stroke="#000000" stroke-width="1" />
  <path d="M39 18 L39 25 L36 25" stroke="#000000" stroke-width="1" />
  
  <!-- Eyes -->
  <ellipse cx="28" cy="19" rx="2" ry="1" fill="#000000" />
  <ellipse cx="36" cy="19" rx="2" ry="1" fill="#000000" />
  
  <!-- Eyepatch -->
  <path d="M25 18 L31 18 L31 21 L25 21 Z" fill="#000000" opacity="0.7" />
  <line x1="25" y1="18" x2="20" y2="15" stroke="#000000" stroke-width="1" />
  
  <!-- Mouth -->
  <path d="M30 24 L34 24" stroke="#000000" stroke-width="1" />
  
  <!-- Torso -->
  <rect x="27" y="30" width="10" height="15" fill="#cd853f" />
  
  <!-- Arms -->
  <rect x="21" y="30" width="6" height="12" fill="#cd853f" />
  <rect x="37" y="30" width="6" height="12" fill="#cd853f" />
  
  <!-- Hands -->
  <circle cx="21" cy="44" r="2" fill="#f5deb3" />
  <circle cx="43" cy="44" r="2" fill="#f5deb3" />
  
  <!-- Legs -->
  <rect x="27" y="45" width="4" height="15" fill="#000080" />
  <rect x="33" y="45" width="4" height="15" fill="#000080" />
  
  <!-- Boots -->
  <rect x="27" y="60" width="4" height="3" fill="#8b4513" />
  <rect x="33" y="60" width="4" height="3" fill="#8b4513" />
  
  <!-- Cybernetic enhancements -->
  <rect x="35" y="24" width="7" height="1" fill="#c0c0c0" />
  <rect x="35" y="22" width="7" height="1" fill="#c0c0c0" />
  <rect x="35" y="26" width="5" height="1" fill="#c0c0c0" />
  
  <!-- Neon accent -->
  <rect x="37" y="22" width="3" height="1" fill="#00ffff" opacity="0.8">
    <animate attributeName="opacity" values="0.5;1;0.5" dur="2s" repeatCount="indefinite" />
  </rect>
  <rect x="37" y="26" width="2" height="1" fill="#ff00ff" opacity="0.8">
    <animate attributeName="opacity" values="0.5;1;0.5" dur="1.5s" repeatCount="indefinite" />
  </rect>
</svg>