<?xml version="1.0" encoding="UTF-8" standalone="no"?>
<svg xmlns="http://www.w3.org/2000/svg" width="100" height="100" viewBox="0 0 100 100">
  <rect width="100" height="100" rx="5" ry="5" fill="#1a0f33" stroke="#8b00cc" stroke-width="4"/>
  <rect x="10" y="10" width="80" height="80" rx="3" ry="3" fill="#2a1a44" stroke="#aa44ee" stroke-width="2"/>
  
  <!-- Background glow -->
  <rect x="15" y="15" width="70" height="70" rx="2" ry="2" fill="url(#gradient)" opacity="0.3"/>
  
  <!-- Define gradient for background glow -->
  <defs>
    <radialGradient id="gradient" cx="50%" cy="50%" r="50%" fx="50%" fy="50%">
      <stop offset="0%" style="stop-color:#ff00ff; stop-opacity:0.8" />
      <stop offset="100%" style="stop-color:#1a0f33; stop-opacity:0" />
    </radialGradient>
  </defs>
  
  <!-- Distilling apparatus -->
  <g>
    <!-- Container/flask -->
    <path d="M35,30 H65 V70 C65,80 35,80 35,70 Z" fill="#9933cc" fill-opacity="0.3" stroke="#cc66ff" stroke-width="1.5"/>
    
    <!-- Liquid inside -->
    <path d="M35,50 H65 V70 C65,80 35,80 35,70 Z" fill="#cc00ff" fill-opacity="0.5"/>
    
    <!-- Tube on top -->
    <path d="M45,30 V20 H55 V30" fill="none" stroke="#cc66ff" stroke-width="1.5"/>
    
    <!-- Distilling droplets -->
    <circle cx="50" cy="35" r="2" fill="#ff00ff"/>
    <circle cx="45" cy="45" r="1.5" fill="#ff00ff"/>
    <circle cx="55" cy="40" r="1" fill="#ff00ff"/>
    
    <!-- Energy nodes -->
    <circle cx="30" cy="60" r="3" fill="#00ffff" stroke="#0088ff" stroke-width="1"/>
    <circle cx="70" cy="60" r="3" fill="#00ffff" stroke="#0088ff" stroke-width="1"/>
    
    <!-- Connection lines -->
    <path d="M30,60 H35" stroke="#00ffff" stroke-width="1"/>
    <path d="M65,60 H70" stroke="#00ffff" stroke-width="1"/>
  </g>
  
  <!-- Digital elements -->
  <g stroke="#00ccff" stroke-width="0.5" opacity="0.3">
    <path d="M20,20 H80" />
    <path d="M20,25 H80" />
    <path d="M20,80 H80" />
    <path d="M20,85 H80" />
    <path d="M20,20 V85" />
    <path d="M80,20 V85" />
  </g>
</svg>