<?xml version="1.0" encoding="UTF-8" standalone="no"?>
<svg xmlns="http://www.w3.org/2000/svg" width="100" height="100" viewBox="0 0 100 100">
  <rect width="100" height="100" rx="5" ry="5" fill="#1a0f33" stroke="#8b00cc" stroke-width="4"/>
  <rect x="10" y="10" width="80" height="80" rx="3" ry="3" fill="#2a1a44" stroke="#9933cc" stroke-width="2"/>
  <g fill="#4422aa" opacity="0.7">
    <rect x="20" y="20" width="5" height="5"/>
    <rect x="35" y="30" width="5" height="5"/>
    <rect x="50" y="20" width="5" height="5"/>
    <rect x="65" y="40" width="5" height="5"/>
    <rect x="75" y="25" width="5" height="5"/>
    <rect x="20" y="50" width="5" height="5"/>
    <rect x="40" y="60" width="5" height="5"/>
    <rect x="60" y="70" width="5" height="5"/>
    <rect x="75" y="50" width="5" height="5"/>
  </g>
  
  <!-- Add circuit lines as a thematic element -->
  <path d="M10,30 H40 V70 H90" fill="none" stroke="#cc33ff" stroke-width="1" opacity="0.3"/>
  <path d="M30,10 V60 H80 V90" fill="none" stroke="#cc33ff" stroke-width="1" opacity="0.3"/>
  <path d="M50,10 V30 H90" fill="none" stroke="#cc33ff" stroke-width="1" opacity="0.3"/>
  <path d="M10,80 H50 V90" fill="none" stroke="#cc33ff" stroke-width="1" opacity="0.3"/>
</svg>