<?xml version="1.0" encoding="UTF-8" standalone="no"?>
<svg width="800" height="600" xmlns="http://www.w3.org/2000/svg">
  <!-- Ether range background with digital/cyberpunk elements -->
  
  <!-- Background gradient -->
  <defs>
    <linearGradient id="nightSky" x1="0%" y1="0%" x2="0%" y2="100%">
      <stop offset="0%" style="stop-color:#000033;stop-opacity:1" />
      <stop offset="50%" style="stop-color:#330066;stop-opacity:1" />
      <stop offset="100%" style="stop-color:#660066;stop-opacity:1" />
    </linearGradient>
    
    <!-- Grid pattern -->
    <pattern id="grid" width="80" height="80" patternUnits="userSpaceOnUse">
      <path d="M 80 0 L 0 0 0 80" fill="none" stroke="#8a2be2" stroke-width="0.5" opacity="0.3" />
    </pattern>
  </defs>
  
  <!-- Main background -->
  <rect width="800" height="600" fill="url(#nightSky)" />
  
  <!-- Grid overlay -->
  <rect width="800" height="600" fill="url(#grid)" />
  
  <!-- Digital horizon -->
  <path d="M 0 400 L 150 380 L 300 390 L 450 370 L 600 385 L 800 400 L 800 600 L 0 600 Z" fill="#000000" opacity="0.5" />
  
  <!-- Circuit lines -->
  <path d="M 100 300 L 150 250 L 300 250 L 350 300 L 500 300 L 550 250 L 700 250" stroke="#00ffff" stroke-width="2" fill="none" opacity="0.6" />
  <path d="M 200 400 L 250 350 L 400 350 L 450 400 L 600 400 L 650 350" stroke="#ff00ff" stroke-width="2" fill="none" opacity="0.6" />
  <path d="M 0 200 L 100 200 L 150 150 L 300 150 L 350 200 L 800 200" stroke="#7fff00" stroke-width="2" fill="none" opacity="0.6" />
  
  <!-- Digital particles -->
  <circle cx="100" cy="100" r="2" fill="#00ffff">
    <animate attributeName="opacity" values="0.2;1;0.2" dur="3s" repeatCount="indefinite" />
  </circle>
  <circle cx="200" cy="150" r="2" fill="#00ffff">
    <animate attributeName="opacity" values="0.2;1;0.2" dur="4s" repeatCount="indefinite" />
  </circle>
  <circle cx="300" cy="100" r="2" fill="#00ffff">
    <animate attributeName="opacity" values="0.2;1;0.2" dur="5s" repeatCount="indefinite" />
  </circle>
  <circle cx="400" cy="150" r="2" fill="#00ffff">
    <animate attributeName="opacity" values="0.2;1;0.2" dur="3.5s" repeatCount="indefinite" />
  </circle>
  <circle cx="500" cy="100" r="2" fill="#00ffff">
    <animate attributeName="opacity" values="0.2;1;0.2" dur="4.5s" repeatCount="indefinite" />
  </circle>
  <circle cx="600" cy="150" r="2" fill="#00ffff">
    <animate attributeName="opacity" values="0.2;1;0.2" dur="3.7s" repeatCount="indefinite" />
  </circle>
  <circle cx="700" cy="100" r="2" fill="#00ffff">
    <animate attributeName="opacity" values="0.2;1;0.2" dur="4.2s" repeatCount="indefinite" />
  </circle>
  
  <!-- Distant stars/data points -->
  <circle cx="50" cy="50" r="1" fill="#ffffff" />
  <circle cx="150" cy="70" r="1" fill="#ffffff" />
  <circle cx="250" cy="40" r="1" fill="#ffffff" />
  <circle cx="350" cy="80" r="1" fill="#ffffff" />
  <circle cx="450" cy="60" r="1" fill="#ffffff" />
  <circle cx="550" cy="30" r="1" fill="#ffffff" />
  <circle cx="650" cy="70" r="1" fill="#ffffff" />
  <circle cx="750" cy="50" r="1" fill="#ffffff" />
  
  <!-- Digital "moon" -->
  <circle cx="650" cy="100" r="40" fill="#9400d3" opacity="0.5" />
  <circle cx="650" cy="100" r="35" fill="#800080" opacity="0.6" />
  <path d="M 625 85 L 675 85 M 625 100 L 675 100 M 625 115 L 675 115" stroke="#dda0dd" stroke-width="1" opacity="0.8" />
  <path d="M 635 75 L 635 125 M 650 75 L 650 125 M 665 75 L 665 125" stroke="#dda0dd" stroke-width="1" opacity="0.8" />
</svg>