<?xml version="1.0" encoding="UTF-8" standalone="no"?>
<svg width="80" height="80" xmlns="http://www.w3.org/2000/svg">
  <!-- Empty field ready for planting -->
  <rect width="80" height="80" fill="#cd853f" />
  <rect x="5" y="5" width="70" height="70" fill="#8b4513" />
  
  <!-- Tilled soil lines -->
  <line x1="10" y1="15" x2="70" y2="15" stroke="#5e2605" stroke-width="2" />
  <line x1="10" y1="30" x2="70" y2="30" stroke="#5e2605" stroke-width="2" />
  <line x1="10" y1="45" x2="70" y2="45" stroke="#5e2605" stroke-width="2" />
  <line x1="10" y1="60" x2="70" y2="60" stroke="#5e2605" stroke-width="2" />
  
  <!-- Small divots for planting -->
  <circle cx="20" cy="15" r="2" fill="#3d1c02" />
  <circle cx="40" cy="15" r="2" fill="#3d1c02" />
  <circle cx="60" cy="15" r="2" fill="#3d1c02" />
  
  <circle cx="20" cy="30" r="2" fill="#3d1c02" />
  <circle cx="40" cy="30" r="2" fill="#3d1c02" />
  <circle cx="60" cy="30" r="2" fill="#3d1c02" />
  
  <circle cx="20" cy="45" r="2" fill="#3d1c02" />
  <circle cx="40" cy="45" r="2" fill="#3d1c02" />
  <circle cx="60" cy="45" r="2" fill="#3d1c02" />
  
  <circle cx="20" cy="60" r="2" fill="#3d1c02" />
  <circle cx="40" cy="60" r="2" fill="#3d1c02" />
  <circle cx="60" cy="60" r="2" fill="#3d1c02" />
</svg>