<?xml version="1.0" encoding="UTF-8" standalone="no"?>
<svg xmlns="http://www.w3.org/2000/svg" width="100" height="100" viewBox="0 0 100 100">
  <rect width="100" height="100" rx="5" ry="5" fill="#5a6114" stroke="#8b9e25" stroke-width="4"/>
  <rect x="10" y="10" width="80" height="80" rx="3" ry="3" fill="#708218" stroke="#9aae32" stroke-width="2"/>
  
  <!-- Plowed rows -->
  <rect x="20" y="30" width="60" height="5" fill="#3d4304"/>
  <rect x="20" y="50" width="60" height="5" fill="#3d4304"/>
  <rect x="20" y="70" width="60" height="5" fill="#3d4304"/>
  
  <!-- Medium plants -->
  <g fill="#90c030">
    <!-- Plant 1 -->
    <path d="M35,30 L40,15 L45,30 Z" />
    <path d="M30,25 L40,20 L40,30 Z" />
    <path d="M45,25 L40,20 L40,30 Z" />
    <rect x="39" y="30" width="2" height="15" />
    
    <!-- Plant 2 -->
    <path d="M55,50 L60,35 L65,50 Z" />
    <path d="M50,45 L60,40 L60,50 Z" />
    <path d="M65,45 L60,40 L60,50 Z" />
    <rect x="59" y="50" width="2" height="15" />
    
    <!-- Plant 3 -->
    <path d="M75,70 L80,55 L85,70 Z" />
    <path d="M70,65 L80,60 L80,70 Z" />
    <path d="M85,65 L80,60 L80,70 Z" />
    <rect x="79" y="70" width="2" height="15" />
  </g>
</svg>