<?xml version="1.0" encoding="UTF-8" standalone="no"?>
<svg width="80" height="80" xmlns="http://www.w3.org/2000/svg">
  <!-- Pasture -->
  <rect width="80" height="80" fill="#8fbc8f" />
  
  <!-- Fence -->
  <rect x="5" y="5" width="70" height="70" stroke="#a0522d" stroke-width="5" fill="none" />
  
  <!-- Fence posts corners -->
  <rect x="2" y="2" width="7" height="7" fill="#a0522d" />
  <rect x="71" y="2" width="7" height="7" fill="#a0522d" />
  <rect x="2" y="71" width="7" height="7" fill="#a0522d" />
  <rect x="71" y="71" width="7" height="7" fill="#a0522d" />
  
  <!-- Grass tufts -->
  <path d="M20 40 L18 30 L20 40 L22 30 L20 40" stroke="#32cd32" stroke-width="1" fill="#32cd32" />
  <path d="M40 60 L38 50 L40 60 L42 50 L40 60" stroke="#32cd32" stroke-width="1" fill="#32cd32" />
  <path d="M60 30 L58 20 L60 30 L62 20 L60 30" stroke="#32cd32" stroke-width="1" fill="#32cd32" />
  <path d="M30 20 L28 10 L30 20 L32 10 L30 20" stroke="#32cd32" stroke-width="1" fill="#32cd32" />
  <path d="M50 40 L48 30 L50 40 L52 30 L50 40" stroke="#32cd32" stroke-width="1" fill="#32cd32" />
  <path d="M25 65 L23 55 L25 65 L27 55 L25 65" stroke="#32cd32" stroke-width="1" fill="#32cd32" />
  <path d="M65 55 L63 45 L65 55 L67 45 L65 55" stroke="#32cd32" stroke-width="1" fill="#32cd32" />
</svg>