<?xml version="1.0" encoding="UTF-8"?>
<svg width="40" height="40" viewBox="0 0 40 40" xmlns="http://www.w3.org/2000/svg">
  <!-- Potion bottle with cyberpunk styling -->
  
  <!-- Bottle shape -->
  <path d="M15,10 L25,10 L28,20 C28,28 12,28 12,20 Z" fill="#6a0dad" stroke="#8a2be2" stroke-width="1.5" />
  
  <!-- Bottle neck and cap -->
  <path d="M18,5 L18,10 M22,5 L22,10" stroke="#8a2be2" stroke-width="1.5" stroke-linecap="round" />
  <rect x="17" y="3" width="6" height="3" rx="1" ry="1" fill="#8a2be2" stroke="#ff00ff" stroke-width="0.5" />
  
  <!-- Liquid with gradient -->
  <path d="M15,10 L25,10 L28,20 C28,28 12,28 12,20 Z" fill="url(#potionGradient)" opacity="0.8" />
  
  <!-- Glow effect -->
  <path d="M15,10 L25,10 L28,20 C28,28 12,28 12,20 Z" fill="url(#glowEffect)" opacity="0.5" />
  
  <!-- Sparkles -->
  <circle cx="17" cy="18" r="0.7" fill="#ffffff" />
  <circle cx="20" cy="22" r="0.7" fill="#ffffff" />
  <circle cx="23" cy="19" r="0.7" fill="#ffffff" />
  
  <defs>
    <linearGradient id="potionGradient" x1="0%" y1="0%" x2="100%" y2="100%">
      <stop offset="0%" stop-color="#ff00ff" stop-opacity="0.8" />
      <stop offset="100%" stop-color="#8a2be2" stop-opacity="0.6" />
    </linearGradient>
    
    <radialGradient id="glowEffect" cx="50%" cy="50%" r="50%" fx="50%" fy="50%">
      <stop offset="0%" stop-color="#ffffff" stop-opacity="0.4" />
      <stop offset="100%" stop-color="#ff00ff" stop-opacity="0" />
    </radialGradient>
  </defs>
</svg>