<?xml version="1.0" encoding="UTF-8" standalone="no"?>
<svg xmlns="http://www.w3.org/2000/svg" width="100" height="100" viewBox="0 0 100 100">
  <rect width="100" height="100" rx="5" ry="5" fill="#1a0f33" stroke="#ff00cc" stroke-width="4"/>
  <rect x="10" y="10" width="80" height="80" rx="3" ry="3" fill="#2a1a44" stroke="#ff44dd" stroke-width="2"/>
  
  <!-- Glowing background -->
  <rect x="15" y="15" width="70" height="70" rx="2" ry="2" fill="url(#glow)" opacity="0.6"/>
  
  <!-- Define gradient for glow effect -->
  <defs>
    <radialGradient id="glow" cx="50%" cy="50%" r="50%" fx="50%" fy="50%">
      <stop offset="0%" style="stop-color:#ff00ff; stop-opacity:1" />
      <stop offset="70%" style="stop-color:#aa00ff; stop-opacity:0.5" />
      <stop offset="100%" style="stop-color:#1a0f33; stop-opacity:0" />
    </radialGradient>
  </defs>
  
  <!-- Potion bottle -->
  <g>
    <!-- Bottle body -->
    <path d="M40,30 H60 V42 C72,50 72,70 60,78 H40 C28,70 28,50 40,42 Z" fill="#00ffcc" fill-opacity="0.6" stroke="#00ddaa" stroke-width="1.5"/>
    
    <!-- Bottle neck -->
    <rect x="45" y="20" width="10" height="10" fill="#00ffcc" fill-opacity="0.6" stroke="#00ddaa" stroke-width="1.5"/>
    
    <!-- Cork -->
    <rect x="47" y="16" width="6" height="4" fill="#aa7722" stroke="#884400" stroke-width="1"/>
    
    <!-- Liquid inside -->
    <path d="M40,55 H60 C58,70 42,70 40,55 Z" fill="#ff00ff" fill-opacity="0.8"/>
    
    <!-- Glowing particles -->
    <circle cx="45" cy="50" r="2" fill="#ffffff"/>
    <circle cx="55" cy="45" r="1.5" fill="#ffffff"/>
    <circle cx="50" cy="60" r="1" fill="#ffffff"/>
    <circle cx="48" cy="40" r="1.2" fill="#ffffff"/>
    <circle cx="52" cy="55" r="0.8" fill="#ffffff"/>
  </g>
  
  <!-- Shimmer effect lines -->
  <g stroke="#ffffff" stroke-width="0.5" opacity="0.8">
    <line x1="30" y1="30" x2="35" y2="25" />
    <line x1="70" y1="30" x2="65" y2="25" />
    <line x1="30" y1="70" x2="35" y2="75" />
    <line x1="70" y1="70" x2="65" y2="75" />
  </g>
  
  <!-- Energy field -->
  <circle cx="50" cy="50" r="30" fill="none" stroke="#00ffff" stroke-width="1" stroke-dasharray="3,3" opacity="0.5"/>
</svg>