<?xml version="1.0" encoding="UTF-8" standalone="no"?>
<svg width="800" height="600" xmlns="http://www.w3.org/2000/svg">
  <!-- Saloon interior background -->
  <rect width="800" height="600" fill="#8b4513" />
  
  <!-- Wooden floor boards -->
  <rect y="350" width="800" height="250" fill="#deb887" />
  <line x1="0" y1="370" x2="800" y2="370" stroke="#a0522d" stroke-width="1" />
  <line x1="0" y1="390" x2="800" y2="390" stroke="#a0522d" stroke-width="1" />
  <line x1="0" y1="410" x2="800" y2="410" stroke="#a0522d" stroke-width="1" />
  <line x1="0" y1="430" x2="800" y2="430" stroke="#a0522d" stroke-width="1" />
  <line x1="0" y1="450" x2="800" y2="450" stroke="#a0522d" stroke-width="1" />
  <line x1="0" y1="470" x2="800" y2="470" stroke="#a0522d" stroke-width="1" />
  <line x1="0" y1="490" x2="800" y2="490" stroke="#a0522d" stroke-width="1" />
  <line x1="0" y1="510" x2="800" y2="510" stroke="#a0522d" stroke-width="1" />
  <line x1="0" y1="530" x2="800" y2="530" stroke="#a0522d" stroke-width="1" />
  <line x1="0" y1="550" x2="800" y2="550" stroke="#a0522d" stroke-width="1" />
  <line x1="0" y1="570" x2="800" y2="570" stroke="#a0522d" stroke-width="1" />
  <line x1="0" y1="590" x2="800" y2="590" stroke="#a0522d" stroke-width="1" />
  
  <!-- Bar counter -->
  <rect x="600" y="100" width="150" height="250" fill="#a0522d" />
  <rect x="590" y="90" width="170" height="10" fill="#deb887" />
  
  <!-- Bottles on shelves -->
  <rect x="650" y="50" width="80" height="30" fill="#deb887" />
  <circle cx="660" cy="40" r="5" fill="#008000" />
  <circle cx="675" cy="40" r="5" fill="#ff0000" />
  <circle cx="690" cy="40" r="5" fill="#ffff00" />
  <circle cx="705" cy="40" r="5" fill="#800080" />
  <circle cx="720" cy="40" r="5" fill="#0000ff" />
  
  <!-- Windows -->
  <rect x="100" y="50" width="100" height="100" fill="#000000" />
  <rect x="110" y="60" width="80" height="80" fill="#87ceeb" />
  <line x1="150" y1="60" x2="150" y2="140" stroke="#000000" stroke-width="2" />
  <line x1="110" y1="100" x2="190" y2="100" stroke="#000000" stroke-width="2" />
  
  <rect x="300" y="50" width="100" height="100" fill="#000000" />
  <rect x="310" y="60" width="80" height="80" fill="#87ceeb" />
  <line x1="350" y1="60" x2="350" y2="140" stroke="#000000" stroke-width="2" />
  <line x1="310" y1="100" x2="390" y2="100" stroke="#000000" stroke-width="2" />
  
  <!-- Saloon sign -->
  <rect x="250" y="10" width="300" height="30" fill="#a0522d" />
  <text x="400" y="30" font-family="Arial" font-size="20" text-anchor="middle" fill="#ffd700">CYBER WEST SALOON</text>
  
  <!-- Poker table -->
  <circle cx="250" cy="450" r="50" fill="#006400" />
  <circle cx="250" cy="450" r="45" fill="#228b22" />
</svg>