<?xml version="1.0" encoding="UTF-8" standalone="no"?>
<svg width="800" height="600" xmlns="http://www.w3.org/2000/svg">
  <!-- Background color -->
  <rect width="800" height="600" fill="#1e1416" />
  
  <!-- Wooden floor -->
  <rect y="400" width="800" height="200" fill="#3a2e1f" />
  <rect y="400" width="800" height="5" fill="#553c1e" />
  
  <!-- Floor boards -->
  <rect y="440" width="800" height="2" fill="#2a1e0f" />
  <rect y="480" width="800" height="2" fill="#2a1e0f" />
  <rect y="520" width="800" height="2" fill="#2a1e0f" />
  <rect y="560" width="800" height="2" fill="#2a1e0f" />
  
  <!-- Walls -->
  <rect width="800" height="400" fill="#4a362a" />
  
  <!-- Wooden beams -->
  <rect width="800" height="20" fill="#3a2e1f" />
  <rect y="380" width="800" height="20" fill="#3a2e1f" />
  <rect x="200" width="20" height="400" fill="#3a2e1f" />
  <rect x="600" width="20" height="400" fill="#3a2e1f" />
  
  <!-- Bar counter -->
  <rect x="50" y="300" width="300" height="100" fill="#694c30" />
  <rect x="50" y="300" width="300" height="10" fill="#7a5c40" />
  <rect x="50" y="300" width="10" height="100" fill="#7a5c40" />
  <rect x="340" y="300" width="10" height="100" fill="#7a5c40" />
  
  <!-- Bottles on shelf -->
  <rect x="60" y="250" width="280" height="40" fill="#3a2e1f" />
  <circle cx="80" cy="260" r="10" fill="#006633" />
  <circle cx="110" cy="260" r="10" fill="#663300" />
  <circle cx="140" cy="260" r="10" fill="#990000" />
  <circle cx="170" cy="260" r="10" fill="#334d66" />
  <circle cx="200" cy="260" r="10" fill="#336600" />
  <circle cx="230" cy="260" r="10" fill="#990066" />
  <circle cx="260" cy="260" r="10" fill="#663300" />
  <circle cx="290" cy="260" r="10" fill="#000066" />
  <circle cx="320" cy="260" r="10" fill="#660033" />
  
  <!-- Poker table -->
  <circle cx="500" cy="300" r="80" fill="#006633" stroke="#694c30" stroke-width="10" />
  
  <!-- Chairs around table -->
  <circle cx="500" cy="200" r="15" fill="#694c30" />
  <circle cx="500" cy="400" r="15" fill="#694c30" />
  <circle cx="400" cy="300" r="15" fill="#694c30" />
  <circle cx="600" cy="300" r="15" fill="#694c30" />
  
  <!-- Saloon doors -->
  <rect x="695" y="450" width="50" height="100" fill="#694c30" />
  <rect x="695" y="450" width="50" height="10" fill="#7a5c40" />
  <rect x="695" y="480" width="50" height="10" fill="#7a5c40" />
  <rect x="695" y="510" width="50" height="10" fill="#7a5c40" />
  <rect x="695" y="540" width="50" height="10" fill="#7a5c40" />
  
  <!-- Windows -->
  <rect x="100" y="100" width="80" height="120" fill="#1e1416" stroke="#694c30" stroke-width="10" />
  <line x1="100" y1="160" x2="180" y2="160" stroke="#694c30" stroke-width="5" />
  <line x1="140" y1="100" x2="140" y2="220" stroke="#694c30" stroke-width="5" />
  
  <rect x="600" y="100" width="80" height="120" fill="#1e1416" stroke="#694c30" stroke-width="10" />
  <line x1="600" y1="160" x2="680" y2="160" stroke="#694c30" stroke-width="5" />
  <line x1="640" y1="100" x2="640" y2="220" stroke="#694c30" stroke-width="5" />
</svg>