<?xml version="1.0" encoding="UTF-8"?>
<svg width="80" height="80" viewBox="0 0 80 80" xmlns="http://www.w3.org/2000/svg">
  <!-- Ready cell with cyberpunk style border and glow -->
  <rect x="2" y="2" width="76" height="76" rx="5" ry="5" fill="#1a0f33" stroke="#8a2be2" stroke-width="3" stroke-linejoin="round" />
  <rect x="5" y="5" width="70" height="70" rx="3" ry="3" fill="none" stroke="#00ffff" stroke-width="2" />

  <!-- Completed potion flask -->
  <path d="M30,25 L50,25 L55,45 C55,55 25,55 25,45 Z" fill="url(#readyGradient)" stroke="#8a2be2" stroke-width="2" />
  <path d="M35,15 L35,25 M45,15 L45,25" stroke="#ff00ff" stroke-width="2" stroke-linecap="round" />
  <rect x="33" y="13" width="14" height="4" rx="2" ry="2" fill="#ff00ff" />
  
  <!-- Glowing liquid -->
  <path d="M30,25 L50,25 L55,45 C55,55 25,55 25,45 Z" fill="url(#liquidGlow)" opacity="0.8" />
  
  <!-- Energy particles/sparkles -->
  <circle cx="33" cy="35" r="1" fill="#ffffff" />
  <circle cx="47" cy="38" r="1" fill="#ffffff" />
  <circle cx="40" cy="42" r="1" fill="#ffffff" />
  <circle cx="36" cy="48" r="1" fill="#ffffff" />
  <circle cx="44" cy="45" r="1" fill="#ffffff" />
  
  <!-- Completion indicator -->
  <circle cx="40" cy="65" r="5" fill="none" stroke="#00ffff" stroke-width="1.5" />
  <circle cx="40" cy="65" r="3" fill="#00ffff" />
  
  <!-- Circuit patterns with active glow -->
  <path d="M15,15 L25,15 L25,25" fill="none" stroke="#ff00ff" stroke-width="1" opacity="0.8" />
  <path d="M65,65 L55,65 L55,55" fill="none" stroke="#00ffff" stroke-width="1" opacity="0.8" />
  <path d="M15,65 L25,65 L25,55" fill="none" stroke="#8a2be2" stroke-width="1" opacity="0.8" />
  <path d="M65,15 L55,15 L55,25" fill="none" stroke="#8a2be2" stroke-width="1" opacity="0.8" />
  
  <!-- Outer glow effect -->
  <rect x="0" y="0" width="80" height="80" rx="6" ry="6" fill="url(#outerGlow)" opacity="0.5" />
  
  <defs>
    <linearGradient id="readyGradient" x1="0%" y1="0%" x2="100%" y2="100%">
      <stop offset="0%" stop-color="#ff00ff" stop-opacity="0.8" />
      <stop offset="100%" stop-color="#8a2be2" stop-opacity="0.9" />
    </linearGradient>
    
    <radialGradient id="liquidGlow" cx="50%" cy="50%" r="50%" fx="50%" fy="50%">
      <stop offset="0%" stop-color="#ffffff" stop-opacity="0.7" />
      <stop offset="100%" stop-color="#ff00ff" stop-opacity="0.2" />
    </radialGradient>
    
    <radialGradient id="outerGlow" cx="50%" cy="50%" r="50%" fx="50%" fy="50%">
      <stop offset="0%" stop-color="#ff00ff" stop-opacity="0.3" />
      <stop offset="70%" stop-color="#8a2be2" stop-opacity="0.1" />
      <stop offset="100%" stop-color="#1a0f33" stop-opacity="0" />
    </radialGradient>
  </defs>
</svg>