<?xml version="1.0" encoding="UTF-8"?>
<svg width="80" height="80" viewBox="0 0 80 80" xmlns="http://www.w3.org/2000/svg">
  <!-- Distilling cell with cyberpunk style border -->
  <rect x="2" y="2" width="76" height="76" rx="5" ry="5" fill="#1a0f33" stroke="#8a2be2" stroke-width="2" stroke-linejoin="round" />
  <rect x="5" y="5" width="70" height="70" rx="3" ry="3" fill="none" stroke="#00ffff" stroke-width="1" />

  <!-- Distilling apparatus - main flask -->
  <path d="M25,45 C25,55 55,55 55,45 L50,25 L30,25 Z" fill="#6a0dad" stroke="#8a2be2" stroke-width="2" />
  <path d="M35,15 L35,25 M45,15 L45,25" stroke="#8a2be2" stroke-width="2" stroke-linecap="round" />
  <rect x="33" y="13" width="14" height="4" rx="2" ry="2" fill="#8a2be2" />
  
  <!-- Distillation tubes and equipment -->
  <path d="M25,35 L20,30 L20,20 L30,20 L40,10" fill="none" stroke="#00ffff" stroke-width="1.5" stroke-linecap="round" />
  <path d="M55,35 L60,30 L60,20 L50,20 L40,10" fill="none" stroke="#00ffff" stroke-width="1.5" stroke-linecap="round" />
  
  <!-- Small collection flasks -->
  <circle cx="20" cy="20" r="4" fill="#4b0082" stroke="#8a2be2" stroke-width="1" />
  <circle cx="60" cy="20" r="4" fill="#4b0082" stroke="#8a2be2" stroke-width="1" />
  
  <!-- Liquid in main flask with gradient -->
  <path d="M30,25 L50,25 L55,45 C55,55 25,55 25,45 Z" fill="url(#distillingGradient)" opacity="0.8" />
  
  <!-- Energy lines -->
  <path d="M30,40 L50,40" stroke="#ff00ff" stroke-width="1" stroke-dasharray="1,2" opacity="0.7" />
  <path d="M30,45 L50,45" stroke="#ff00ff" stroke-width="1" stroke-dasharray="1,2" opacity="0.7" />
  <path d="M30,50 L50,50" stroke="#ff00ff" stroke-width="1" stroke-dasharray="1,2" opacity="0.7" />
  
  <!-- Glowing effect -->
  <rect x="2" y="2" width="76" height="76" rx="5" ry="5" fill="url(#glowGradient)" opacity="0.15" />
  
  <defs>
    <linearGradient id="distillingGradient" x1="0%" y1="0%" x2="100%" y2="100%">
      <stop offset="0%" stop-color="#9932cc" stop-opacity="0.8" />
      <stop offset="100%" stop-color="#8a2be2" stop-opacity="0.6" />
    </linearGradient>
    
    <radialGradient id="glowGradient" cx="50%" cy="50%" r="50%" fx="50%" fy="50%">
      <stop offset="0%" stop-color="#8a2be2" stop-opacity="0.6" />
      <stop offset="100%" stop-color="#1a0f33" stop-opacity="0" />
    </radialGradient>
  </defs>
</svg>