<?xml version="1.0" encoding="UTF-8" standalone="no"?>
<svg width="800" height="600" xmlns="http://www.w3.org/2000/svg">
  <!-- Cyberpunk Western town background -->
  
  <!-- Sky gradient -->
  <defs>
    <linearGradient id="skyGradient" x1="0%" y1="0%" x2="0%" y2="100%">
      <stop offset="0%" style="stop-color:#87ceeb;stop-opacity:1" />
      <stop offset="100%" style="stop-color:#f0e68c;stop-opacity:1" />
    </linearGradient>
  </defs>
  
  <!-- Sky -->
  <rect width="800" height="300" fill="url(#skyGradient)" />
  
  <!-- Desert ground -->
  <rect y="300" width="800" height="300" fill="#deb887" />
  
  <!-- Hills in the background -->
  <path d="M0 300 Q 100 250 200 280 Q 300 240 400 280 Q 500 250 600 270 Q 700 240 800 300" fill="#d2b48c" />
  
  <!-- Road -->
  <path d="M0 450 L 800 450" stroke="#a0522d" stroke-width="100" />
  <path d="M0 450 L 800 450" stroke="#8b4513" stroke-width="80" />
  <path d="M50 450 L 150 450 M 250 450 L 350 450 M 450 450 L 550 450 M 650 450 L 750 450" stroke="#f5deb3" stroke-width="5" stroke-dasharray="20,20" />
  
  <!-- Digital elements/circuits on hills -->
  <path d="M100 280 L150 280 L150 260 L200 260" stroke="#00ff00" stroke-width="1" opacity="0.6" />
  <path d="M300 260 L350 260 L350 280 L400 280" stroke="#00ffff" stroke-width="1" opacity="0.6" />
  <path d="M500 270 L520 270 L520 250 L570 250 L570 270 L600 270" stroke="#ff00ff" stroke-width="1" opacity="0.6" />
  
  <!-- Cacti with digital enhancements -->
  <rect x="100" y="320" width="10" height="30" fill="#006400" />
  <rect x="95" y="330" width="20" height="5" fill="#006400" />
  <rect x="105" y="315" width="5" height="15" fill="#006400" />
  <rect x="102" y="320" width="2" height="20" fill="#00ff00" opacity="0.7" />
  
  <rect x="650" y="320" width="10" height="40" fill="#006400" />
  <rect x="645" y="335" width="20" height="5" fill="#006400" />
  <rect x="655" y="310" width="5" height="20" fill="#006400" />
  <rect x="652" y="320" width="2" height="30" fill="#00ff00" opacity="0.7" />
  
  <!-- Tumbleweed with digital particles -->
  <circle cx="200" cy="400" r="10" fill="#8b4513" opacity="0.7" />
  <circle cx="200" cy="400" r="13" fill="none" stroke="#8b4513" stroke-width="1" opacity="0.5" />
  <path d="M195 395 L205 405 M195 405 L205 395" stroke="#00ffff" stroke-width="1" opacity="0.6" />
  
  <!-- Small buildings in the distance -->
  <rect x="150" y="250" width="50" height="30" fill="#cd853f" />
  <rect x="160" y="260" width="10" height="10" fill="#87ceeb" />
  <rect x="180" y="260" width="10" height="20" fill="#a0522d" />
  
  <rect x="400" y="260" width="60" height="40" fill="#cd853f" />
  <rect x="410" y="270" width="10" height="10" fill="#87ceeb" />
  <rect x="440" y="270" width="10" height="10" fill="#87ceeb" />
  <rect x="425" y="280" width="10" height="20" fill="#a0522d" />
  
  <rect x="580" y="240" width="70" height="60" fill="#cd853f" />
  <polygon points="580,240 615,220 650,240" fill="#8b4513" />
  <rect x="590" y="260" width="10" height="10" fill="#87ceeb" />
  <rect x="630" y="260" width="10" height="10" fill="#87ceeb" />
  <rect x="610" y="270" width="10" height="30" fill="#a0522d" />
  <path d="M590 250 L640 250" stroke="#ff00ff" stroke-width="1" opacity="0.8" />
</svg>