<?xml version="1.0" encoding="UTF-8" standalone="no"?>
<svg width="800" height="600" xmlns="http://www.w3.org/2000/svg">
  <!-- Background -->
  <rect width="800" height="600" fill="#6b8e23" />
  
  <!-- Grid lines -->
  <g stroke="#5c7a1e" stroke-width="1">
    <!-- Vertical grid lines -->
    <line x1="80" y1="0" x2="80" y2="600" />
    <line x1="160" y1="0" x2="160" y2="600" />
    <line x1="240" y1="0" x2="240" y2="600" />
    <line x1="320" y1="0" x2="320" y2="600" />
    <line x1="400" y1="0" x2="400" y2="600" />
    <line x1="480" y1="0" x2="480" y2="600" />
    <line x1="560" y1="0" x2="560" y2="600" />
    <line x1="640" y1="0" x2="640" y2="600" />
    <line x1="720" y1="0" x2="720" y2="600" />
    
    <!-- Horizontal grid lines -->
    <line x1="0" y1="80" x2="800" y2="80" />
    <line x1="0" y1="160" x2="800" y2="160" />
    <line x1="0" y1="240" x2="800" y2="240" />
    <line x1="0" y1="320" x2="800" y2="320" />
    <line x1="0" y1="400" x2="800" y2="400" />
    <line x1="0" y1="480" x2="800" y2="480" />
    <line x1="0" y1="560" x2="800" y2="560" />
  </g>
  
  <!-- Paths/Roads -->
  <rect x="120" y="40" width="560" height="40" fill="#a17c50" />
  <rect x="380" y="80" width="40" height="440" fill="#a17c50" />
</svg>